<svg width="31" height="30" viewBox="0 0 31 30" fill="none" xmlns="http://www.w3.org/2000/svg">
<path d="M27.642 7.5V22.5C27.642 22.9973 27.4443 23.4742 27.0922 23.8258C26.7402 24.1775 26.2627 24.375 25.7648 24.375H10.1602L6.33529 27.675L6.32473 27.6832C5.98681 27.9692 5.55802 28.1258 5.11507 28.125C4.83968 28.1245 4.56773 28.0637 4.31842 27.9469C3.99413 27.7976 3.71976 27.5582 3.52812 27.2573C3.33649 26.9563 3.2357 26.6066 3.23783 26.25V7.5C3.23783 7.00272 3.43561 6.52581 3.78766 6.17417C4.13971 5.82254 4.6172 5.625 5.11507 5.625H25.7648C26.2627 5.625 26.7402 5.82254 27.0922 6.17417C27.4443 6.52581 27.642 7.00272 27.642 7.5Z" fill="#323232" fill-opacity="0.5"/>
</svg>
