<svg width="30" height="30" viewBox="0 0 30 30" fill="none" xmlns="http://www.w3.org/2000/svg">
<path d="M28.75 12.4374C28.75 11.7777 28.4866 11.145 28.0178 10.6785C27.5489 10.212 26.913 9.9499 26.25 9.9499H18.35L19.55 4.26596C19.575 4.14159 19.5875 4.00478 19.5875 3.86796C19.5875 3.35803 19.375 2.8854 19.0375 2.54959L17.7125 1.24365L9.4875 9.42753C9.025 9.88771 8.75 10.5096 8.75 11.1937V23.6311C8.75 24.2909 9.01339 24.9236 9.48223 25.3901C9.95107 25.8566 10.587 26.1186 11.25 26.1186H22.5C23.5375 26.1186 24.425 25.4968 24.8 24.6013L28.575 15.8328C28.6875 15.5468 28.75 15.2483 28.75 14.9249V12.4374ZM1.25 26.1186H6.25V11.1937H1.25V26.1186Z" fill="#323232" fill-opacity="0.5"/>
</svg>
