<svg width="33" height="32" viewBox="0 0 33 32" fill="none" xmlns="http://www.w3.org/2000/svg">
<g clip-path="url(#clip0_2_1009)">
<path d="M30.34 13.0765C31.0624 10.9037 30.8216 8.49383 29.6577 6.51852C27.8919 3.47654 24.3201 1.9358 20.8286 2.64691C19.3035 0.948148 17.0561 0 14.7284 0C11.1566 0 8.02629 2.25185 6.90258 5.57037C4.61503 6.04444 2.64853 7.42716 1.48469 9.44198C-0.281142 12.484 0.120183 16.2765 2.488 18.884C1.76562 21.0963 2.04654 23.4667 3.21039 25.442C4.97622 28.484 8.54801 30.0642 12.0395 29.3136C13.6047 31.0123 15.812 32 18.1397 32C21.7115 32 24.8418 29.7481 25.9655 26.4296C28.2531 25.9556 30.2196 24.5728 31.3834 22.558C33.1493 19.516 32.7479 15.684 30.34 13.0765ZM18.1397 29.9062C16.6949 29.9062 15.3304 29.4321 14.2468 28.5235C14.287 28.4839 14.4074 28.4444 14.4475 28.4049L20.9088 24.7309C21.2299 24.5333 21.4306 24.2173 21.4306 23.8222V14.8543L24.1596 16.3951C24.1997 16.3951 24.1997 16.4346 24.1997 16.4741V23.9012C24.2398 27.2198 21.5108 29.9062 18.1397 29.9062ZM5.05648 24.4148C4.3341 23.1901 4.0933 21.7679 4.3341 20.3852C4.37423 20.4247 4.4545 20.4642 4.53476 20.5037L10.9961 24.1778C11.3172 24.3753 11.7185 24.3753 12.0395 24.1778L19.9457 19.6741V22.7951C19.9457 22.8346 19.9457 22.8741 19.9055 22.8741L13.3639 26.5877C10.4744 28.2469 6.74205 27.2593 5.05648 24.4148ZM3.37092 10.5086C4.0933 9.28395 5.21701 8.37531 6.54139 7.86173V15.4469C6.54139 15.8025 6.74205 16.158 7.06311 16.3556L14.9692 20.8593L12.2402 22.4C12.2001 22.4 12.1599 22.4395 12.1599 22.4L5.61834 18.6864C2.64853 17.0272 1.68535 13.3531 3.37092 10.5086ZM25.8451 15.6444L17.939 11.1407L20.668 9.6C20.7082 9.6 20.7483 9.56049 20.7483 9.6L27.2899 13.3136C30.2196 14.9728 31.1828 18.6469 29.4972 21.4914C28.7748 22.716 27.6511 23.6247 26.3267 24.0988V16.5531C26.3669 16.1975 26.1662 15.842 25.8451 15.6444ZM28.534 11.6148C28.4939 11.5753 28.4136 11.5358 28.3333 11.4963L21.872 7.82222C21.551 7.62469 21.1496 7.62469 20.8286 7.82222L12.9225 12.3259V9.20494C12.9225 9.16543 12.9225 9.12593 12.9626 9.12593L19.5042 5.41235C22.4339 3.75309 26.1261 4.74074 27.8116 7.62469C28.534 8.80988 28.7748 10.2321 28.534 11.6148ZM11.4376 17.1457L8.70854 15.6049C8.66841 15.6049 8.66841 15.5654 8.66841 15.5259V8.09877C8.66841 4.78025 11.3974 2.09383 14.7686 2.09383C16.2133 2.09383 17.5778 2.5679 18.6614 3.47654C18.6213 3.51605 18.541 3.55556 18.4607 3.59506L11.9994 7.26914C11.6784 7.46667 11.4777 7.78272 11.4777 8.17778V17.1457H11.4376ZM12.9225 13.9852L16.4541 11.9704L19.9858 13.9852V17.9753L16.4541 19.9901L12.9225 17.9753V13.9852Z" fill="black"/>
</g>
<defs>
<clipPath id="clip0_2_1009">
<rect width="32.0659" height="32" fill="white" transform="translate(0.401367)"/>
</clipPath>
</defs>
</svg>
