<svg width="33" height="32" viewBox="0 0 33 32" fill="none" xmlns="http://www.w3.org/2000/svg">
<path fill-rule="evenodd" clip-rule="evenodd" d="M28.5942 0H4.07106C1.96154 0 0.273926 1.68421 0.273926 3.78947V28.2105C0.273926 30.3158 1.96154 32 4.07106 32H28.5415C30.651 32 32.3386 30.3158 32.3386 28.2105V3.84211C32.3913 1.68421 30.7037 0 28.5942 0ZM14.0913 23.1053C14.0913 23.7895 13.5112 24.3684 12.8256 24.3684H7.49903C6.81343 24.3684 6.23332 23.7895 6.23332 23.1053V7.21053C6.23332 6.52632 6.81343 5.94737 7.49903 5.94737H12.8783C13.5639 5.94737 14.144 6.52632 14.144 7.21053V23.1053H14.0913ZM26.4847 15.7895C26.4847 16.4737 25.9573 17.0526 25.219 17.1053C25.219 17.1053 25.219 17.1053 25.1662 17.1053H19.8397C19.1541 17.1053 18.574 16.5263 18.574 15.8421V7.21053C18.574 6.52632 19.1541 5.94737 19.8397 5.94737H25.219C25.9046 5.94737 26.4847 6.52632 26.4847 7.21053V15.7895Z" fill="url(#paint0_linear_2_1004)"/>
<defs>
<linearGradient id="paint0_linear_2_1004" x1="16.3432" y1="32.0737" x2="16.3432" y2="0" gradientUnits="userSpaceOnUse">
<stop stop-color="#0052CC"/>
<stop offset="1" stop-color="#2684FF"/>
</linearGradient>
</defs>
</svg>
