<svg width="30" height="30" viewBox="0 0 30 30" fill="none" xmlns="http://www.w3.org/2000/svg">
<path d="M15 11.1937C14.0054 11.1937 13.0516 11.5868 12.3483 12.2866C11.6451 12.9863 11.25 13.9354 11.25 14.925C11.25 15.9146 11.6451 16.8636 12.3483 17.5634C13.0516 18.2631 14.0054 18.6562 15 18.6562C15.9946 18.6562 16.9484 18.2631 17.6517 17.5634C18.3549 16.8636 18.75 15.9146 18.75 14.925C18.75 13.9354 18.3549 12.9863 17.6517 12.2866C16.9484 11.5868 15.9946 11.1937 15 11.1937ZM15 21.1437C13.3424 21.1437 11.7527 20.4885 10.5806 19.3223C9.40848 18.1561 8.75 16.5743 8.75 14.925C8.75 13.2757 9.40848 11.6939 10.5806 10.5277C11.7527 9.36143 13.3424 8.70624 15 8.70624C16.6576 8.70624 18.2473 9.36143 19.4194 10.5277C20.5915 11.6939 21.25 13.2757 21.25 14.925C21.25 16.5743 20.5915 18.1561 19.4194 19.3223C18.2473 20.4885 16.6576 21.1437 15 21.1437ZM15 5.59686C8.75 5.59686 3.4125 9.46493 1.25 14.925C3.4125 20.385 8.75 24.2531 15 24.2531C21.25 24.2531 26.5875 20.385 28.75 14.925C26.5875 9.46493 21.25 5.59686 15 5.59686Z" fill="white"/>
</svg>
