<svg width="30" height="30" viewBox="0 0 30 30" fill="none" xmlns="http://www.w3.org/2000/svg">
<path d="M15 11.1938C14.0054 11.1938 13.0516 11.5869 12.3483 12.2867C11.6451 12.9864 11.25 13.9355 11.25 14.925C11.25 15.9146 11.6451 16.8637 12.3483 17.5634C13.0516 18.2632 14.0054 18.6563 15 18.6563C15.9946 18.6563 16.9484 18.2632 17.6517 17.5634C18.3549 16.8637 18.75 15.9146 18.75 14.925C18.75 13.9355 18.3549 12.9864 17.6517 12.2867C16.9484 11.5869 15.9946 11.1938 15 11.1938ZM15 21.1438C13.3424 21.1438 11.7527 20.4886 10.5806 19.3224C9.40848 18.1561 8.75 16.5744 8.75 14.925C8.75 13.2757 9.40848 11.694 10.5806 10.5277C11.7527 9.36149 13.3424 8.7063 15 8.7063C16.6576 8.7063 18.2473 9.36149 19.4194 10.5277C20.5915 11.694 21.25 13.2757 21.25 14.925C21.25 16.5744 20.5915 18.1561 19.4194 19.3224C18.2473 20.4886 16.6576 21.1438 15 21.1438ZM15 5.59692C8.75 5.59692 3.4125 9.46499 1.25 14.925C3.4125 20.3851 8.75 24.2532 15 24.2532C21.25 24.2532 26.5875 20.3851 28.75 14.925C26.5875 9.46499 21.25 5.59692 15 5.59692Z" fill="#323232" fill-opacity="0.5"/>
</svg>
